<?xml version="1.0" encoding="UTF-8" standalone="no"?>
<!DOCTYPE svg PUBLIC "-//W3C//DTD SVG 20010904//EN"
              "http://www.w3.org/TR/2001/REC-SVG-20010904/DTD/svg10.dtd">

<svg xmlns="http://www.w3.org/2000/svg"
     width="9.16667in" height="3.38889in"
     viewBox="0 0 660 244">
  <path id="Selection"
        fill="black" stroke="black" stroke-width="1"
        d="M 124.00,10.00
           C 124.00,10.00 124.00,41.00 124.00,41.00
             124.00,41.00 120.00,41.00 120.00,41.00
             120.00,41.00 120.00,10.00 120.00,10.00
             120.00,10.00 124.00,10.00 124.00,10.00 Z
           M 22.00,13.45
           C 31.28,18.16 31.67,33.49 22.96,38.99
             18.40,41.87 9.43,41.00 4.00,41.00
             4.00,41.00 4.00,12.00 4.00,12.00
             8.90,12.00 17.81,11.33 22.00,13.45 Z
           M 88.00,12.00
           C 88.00,12.00 88.00,16.00 88.00,16.00
             88.00,16.00 84.00,16.00 84.00,16.00
             84.00,16.00 84.00,12.00 84.00,12.00
             84.00,12.00 88.00,12.00 88.00,12.00 Z
           M 164.70,21.00
           C 164.33,22.87 163.83,23.42 162.97,25.00
             168.22,28.56 168.69,36.68 162.97,39.83
             159.73,41.58 150.03,41.00 146.00,41.00
             146.00,41.00 146.00,12.00 146.00,12.00
             152.90,12.00 167.00,9.56 164.70,21.00 Z
           M 19.94,35.26
           C 25.10,31.75 25.58,22.50 20.85,18.43
             17.81,15.80 11.92,15.32 8.00,15.00
             8.00,15.00 8.00,38.00 8.00,38.00
             11.39,37.72 17.15,37.17 19.94,35.26 Z
           M 159.34,18.29
           C 158.23,15.43 152.60,15.21 150.00,15.00
             150.00,15.00 150.00,24.00 150.00,24.00
             152.96,23.86 161.36,23.45 159.34,18.29 Z
           M 48.85,19.02
           C 53.58,21.82 52.00,35.81 52.00,41.00
             52.00,41.00 47.00,39.00 47.00,39.00
             43.99,40.95 39.49,41.95 36.15,39.98
             31.92,37.48 32.18,30.65 36.15,27.85
             39.11,25.77 43.53,26.01 47.00,26.00
             43.89,20.49 40.43,22.28 35.00,23.00
             35.00,23.00 35.00,18.00 35.00,18.00
             38.24,18.00 46.31,17.52 48.85,19.02 Z
           M 72.94,18.80
           C 79.05,21.03 77.00,35.41 77.00,41.00
             77.00,41.00 73.00,41.00 73.00,41.00
             73.00,37.02 73.89,23.95 68.86,22.82
             61.14,21.09 63.00,36.84 63.00,41.00
             63.00,41.00 59.00,41.00 59.00,41.00
             59.00,41.00 59.00,18.80 59.00,18.80
             63.30,19.17 70.00,17.43 72.94,18.80 Z
           M 113.01,39.26
           C 110.66,42.16 100.90,41.20 98.11,39.26
             94.23,36.57 93.80,32.35 94.04,28.00
             94.43,21.21 98.29,17.96 105.00,18.03
             107.11,18.06 109.04,18.26 110.77,19.60
             114.15,22.20 113.96,26.19 114.00,30.00
             114.00,30.00 99.00,30.00 99.00,30.00
             101.73,39.18 106.91,36.84 114.00,35.00
             113.89,36.43 113.98,38.06 113.01,39.26 Z
           M 205.35,20.57
           C 209.37,24.75 209.35,37.53 202.90,40.26
             201.48,40.86 199.53,40.97 198.00,40.97
             185.07,40.97 185.38,23.52 193.10,18.74
             197.08,17.73 202.22,17.32 205.35,20.57 Z
           M 260.94,18.80
           C 267.05,21.03 265.00,35.41 265.00,41.00
             265.00,41.00 261.00,41.00 261.00,41.00
             261.00,37.02 261.89,23.95 256.86,22.82
             249.14,21.09 251.00,36.84 251.00,41.00
             251.00,41.00 247.00,41.00 247.00,41.00
             247.00,41.00 247.00,18.80 247.00,18.80
             251.30,19.17 258.00,17.43 260.94,18.80 Z
           M 88.00,19.00
           C 88.00,19.00 88.00,41.00 88.00,41.00
             88.00,41.00 84.00,41.00 84.00,41.00
             84.00,41.00 84.00,19.00 84.00,19.00
             84.00,19.00 88.00,19.00 88.00,19.00 Z
           M 178.00,21.00
           C 178.00,21.00 186.00,19.00 186.00,19.00
             186.00,19.00 186.00,23.00 186.00,23.00
             174.59,25.72 177.00,31.28 177.00,41.00
             177.00,41.00 173.00,41.00 173.00,41.00
             173.00,41.00 173.00,19.00 173.00,19.00
             173.00,19.00 178.00,21.00 178.00,21.00 Z
           M 217.00,19.00
           C 217.00,19.00 219.00,32.00 219.00,32.00
             222.06,28.42 222.98,23.53 224.00,19.00
             231.49,19.60 228.87,22.29 234.00,34.00
             234.00,34.00 236.00,19.00 236.00,19.00
             236.00,19.00 241.00,19.00 241.00,19.00
             241.00,19.00 237.87,34.00 237.87,34.00
             237.87,34.00 235.28,40.01 235.28,40.01
             235.28,40.01 231.00,41.00 231.00,41.00
             231.00,41.00 226.00,26.00 226.00,26.00
             226.00,26.00 222.00,41.00 222.00,41.00
             222.00,41.00 217.72,40.01 217.72,40.01
             217.72,40.01 215.13,34.00 215.13,34.00
             215.13,34.00 212.00,19.00 212.00,19.00
             212.00,19.00 217.00,19.00 217.00,19.00 Z
           M 99.00,27.00
           C 99.00,27.00 109.00,27.00 109.00,27.00
             107.37,19.89 101.02,20.67 99.00,27.00 Z
           M 199.78,36.38
           C 203.62,34.83 206.17,21.14 196.14,22.62
             190.15,26.73 192.99,39.13 199.78,36.38 Z
           M 161.71,32.04
           C 161.71,30.82 161.33,29.79 160.40,28.98
             158.35,27.21 152.66,27.06 150.00,27.00
             150.00,27.00 150.00,38.00 150.00,38.00
             154.04,37.81 161.71,37.67 161.71,32.04 Z
           M 43.02,30.11
           C 32.92,32.14 42.44,41.16 46.98,34.57
             47.93,33.19 47.87,31.58 48.00,30.11
             48.00,30.11 43.02,30.11 43.02,30.11 Z
           M 217.00,69.00
           C 217.02,66.27 216.87,63.46 218.60,61.15
             221.56,57.18 230.28,56.57 232.98,61.15
             235.00,64.58 233.39,68.70 232.00,72.00
             237.29,75.18 237.36,83.80 232.77,87.26
             230.09,89.29 226.20,88.99 223.00,89.00
             223.00,89.00 223.00,85.00 223.00,85.00
             232.46,84.23 233.35,76.54 225.00,74.00
             225.00,74.00 225.00,69.00 225.00,69.00
             231.28,65.41 226.72,62.00 224.29,63.17
             222.17,64.19 221.58,67.91 221.14,70.00
             221.14,70.00 221.14,89.00 221.14,89.00
             221.14,89.00 217.00,89.00 217.00,89.00
             217.00,89.00 217.00,69.00 217.00,69.00 Z
           M 320.85,71.60
           C 325.99,75.43 326.35,91.01 312.00,88.85
             301.14,87.22 303.15,69.42 305.85,65.02
             309.72,58.73 314.54,59.00 321.00,59.00
             321.00,59.00 321.00,63.00 321.00,63.00
             314.06,63.09 311.39,64.02 309.00,71.00
             312.64,69.97 317.57,69.14 320.85,71.60 Z
           M 11.00,60.00
           C 11.00,60.00 17.00,74.00 17.00,74.00
             22.52,64.03 20.83,60.32 30.00,60.00
             30.00,60.00 30.00,89.00 30.00,89.00
             30.00,89.00 26.00,89.00 26.00,89.00
             26.00,89.00 25.00,67.00 25.00,67.00
             24.17,69.91 20.21,81.52 16.17,80.27
             13.82,79.54 9.46,69.56 8.00,67.00
             8.00,67.00 8.00,89.00 8.00,89.00
             8.00,89.00 4.00,89.00 4.00,89.00
             4.00,89.00 4.00,60.00 4.00,60.00
             4.00,60.00 11.00,60.00 11.00,60.00 Z
           M 291.00,60.00
           C 291.00,60.00 291.00,86.00 291.00,86.00
             291.00,86.00 297.00,86.00 297.00,86.00
             297.00,86.00 297.00,89.00 297.00,89.00
             297.00,89.00 281.00,89.00 281.00,89.00
             281.00,89.00 281.00,86.00 281.00,86.00
             281.00,86.00 287.00,86.00 287.00,86.00
             287.00,86.00 287.00,67.00 287.00,67.00
             287.00,67.00 281.00,67.00 281.00,67.00
             281.00,67.00 281.00,63.00 281.00,63.00
             281.00,63.00 291.00,60.00 291.00,60.00 Z
           M 128.00,61.00
           C 128.00,61.00 128.00,67.00 128.00,67.00
             128.00,67.00 135.00,67.00 135.00,67.00
             135.00,67.00 135.00,70.00 135.00,70.00
             135.00,70.00 128.00,70.00 128.00,70.00
             128.00,70.00 129.00,85.00 129.00,85.00
             129.00,85.00 135.00,85.00 135.00,85.00
             135.00,85.00 135.00,89.00 135.00,89.00
             132.29,89.00 127.63,89.43 125.60,87.40
             123.45,85.25 124.04,79.91 124.00,77.00
             123.90,71.22 122.79,70.86 122.66,68.88
             122.66,68.88 124.00,61.00 124.00,61.00
             124.00,61.00 128.00,61.00 128.00,61.00 Z
           M 165.00,61.00
           C 165.00,61.00 165.00,67.00 165.00,67.00
             165.00,67.00 172.00,67.00 172.00,67.00
             172.00,67.00 172.00,70.00 172.00,70.00
             172.00,70.00 165.00,70.00 165.00,70.00
             165.00,70.00 166.00,85.00 166.00,85.00
             166.00,85.00 172.00,85.00 172.00,85.00
             172.00,85.00 172.00,89.00 172.00,89.00
             169.29,89.00 164.63,89.43 162.60,87.40
             160.45,85.25 161.04,79.91 161.00,77.00
             160.90,71.22 159.79,70.86 159.66,68.88
             159.66,68.88 161.00,61.00 161.00,61.00
             161.00,61.00 165.00,61.00 165.00,61.00 Z
           M 53.35,68.57
           C 57.37,72.75 57.35,85.53 50.90,88.26
             49.48,88.86 47.53,88.97 46.00,88.97
             33.07,88.97 33.38,71.52 41.10,66.74
             45.08,65.73 50.22,65.32 53.35,68.57 Z
           M 96.85,67.02
           C 101.58,69.82 100.00,83.81 100.00,89.00
             100.00,89.00 95.00,87.00 95.00,87.00
             91.99,88.95 87.49,89.95 84.15,87.98
             79.92,85.48 80.18,78.65 84.15,75.85
             87.11,73.77 91.53,74.01 95.00,74.00
             91.89,68.49 88.43,70.28 83.00,71.00
             83.00,71.00 83.00,66.00 83.00,66.00
             86.24,66.00 94.31,65.52 96.85,67.02 Z
           M 142.00,84.12
           C 143.56,84.51 150.43,85.13 148.09,81.50
             146.91,79.68 133.70,78.02 139.02,69.23
             141.04,65.89 150.44,64.39 152.98,67.60
             153.96,68.83 153.88,70.53 154.00,72.00
             154.00,72.00 143.00,70.00 143.00,70.00
             145.82,78.49 155.97,73.30 154.84,82.99
             153.86,91.31 140.76,89.45 138.99,87.26
             138.02,86.06 138.11,84.43 138.00,83.00
             138.00,83.00 142.00,84.12 142.00,84.12 Z
           M 206.85,67.02
           C 211.58,69.82 210.00,83.81 210.00,89.00
             210.00,89.00 205.00,87.00 205.00,87.00
             201.99,88.95 197.49,89.95 194.15,87.98
             189.92,85.48 190.18,78.65 194.15,75.85
             197.11,73.77 201.53,74.01 205.00,74.00
             201.89,68.49 198.43,70.28 193.00,71.00
             193.00,71.00 193.00,66.00 193.00,66.00
             196.24,66.00 204.31,65.52 206.85,67.02 Z
           M 259.01,87.26
           C 256.66,90.16 246.90,89.20 244.11,87.26
             240.23,84.57 239.80,80.35 240.04,76.00
             240.43,69.21 244.29,65.96 251.00,66.03
             253.11,66.06 255.04,66.26 256.77,67.60
             260.15,70.20 259.96,74.19 260.00,78.00
             260.00,78.00 245.00,78.00 245.00,78.00
             247.73,87.18 252.91,84.84 260.00,83.00
             259.89,84.43 259.98,86.06 259.01,87.26 Z
           M 77.00,67.00
           C 76.39,74.58 70.08,79.90 66.00,86.00
             66.00,86.00 77.00,86.00 77.00,86.00
             77.00,86.00 77.00,89.00 77.00,89.00
             77.00,89.00 60.00,89.00 60.00,89.00
             60.62,81.01 66.66,76.48 71.00,70.00
             71.00,70.00 60.00,70.00 60.00,70.00
             60.00,70.00 60.00,67.00 60.00,67.00
             60.00,67.00 77.00,67.00 77.00,67.00 Z
           M 112.00,69.00
           C 112.00,69.00 120.00,67.00 120.00,67.00
             120.00,67.00 120.00,71.00 120.00,71.00
             108.59,73.72 111.00,79.28 111.00,89.00
             111.00,89.00 107.00,89.00 107.00,89.00
             107.00,89.00 107.00,67.00 107.00,67.00
             107.00,67.00 112.00,69.00 112.00,69.00 Z
           M 182.00,69.00
           C 182.00,69.00 190.00,67.00 190.00,67.00
             190.00,67.00 190.00,71.00 190.00,71.00
             178.59,73.72 181.00,79.28 181.00,89.00
             181.00,89.00 177.00,89.00 177.00,89.00
             177.00,89.00 177.00,67.00 177.00,67.00
             177.00,67.00 182.00,69.00 182.00,69.00 Z
           M 47.78,84.38
           C 51.62,82.83 54.17,69.14 44.14,70.62
             38.15,74.73 40.99,87.13 47.78,84.38 Z
           M 245.00,75.00
           C 245.00,75.00 255.00,75.00 255.00,75.00
             253.37,67.89 247.02,68.67 245.00,75.00 Z
           M 315.86,84.38
           C 320.23,82.67 320.76,72.68 311.31,74.60
             306.49,78.66 310.32,86.55 315.86,84.38 Z
           M 91.02,78.11
           C 80.92,80.14 90.44,89.16 94.98,82.57
             95.93,81.19 95.87,79.58 96.00,78.11
             96.00,78.11 91.02,78.11 91.02,78.11 Z
           M 201.02,78.11
           C 190.92,80.14 200.44,89.16 204.98,82.57
             205.93,81.19 205.87,79.58 206.00,78.11
             206.00,78.11 201.02,78.11 201.02,78.11 Z
           M 337.00,83.00
           C 337.00,83.00 333.00,96.00 333.00,96.00
             333.00,96.00 329.00,96.00 329.00,96.00
             329.54,89.52 329.53,83.62 337.00,83.00 Z
           M 205.00,106.00
           C 205.00,106.00 205.00,137.00 205.00,137.00
             205.00,137.00 201.00,137.00 201.00,137.00
             201.00,137.00 201.00,106.00 201.00,106.00
             201.00,106.00 205.00,106.00 205.00,106.00 Z
           M 259.00,106.00
           C 259.00,106.00 259.00,116.00 259.00,116.00
             260.85,115.14 261.91,114.54 264.00,114.23
             271.73,113.08 272.96,117.65 273.00,124.00
             273.00,124.00 273.00,137.00 273.00,137.00
             273.00,137.00 269.00,137.00 269.00,137.00
             269.00,133.02 269.89,119.95 264.86,118.82
             257.14,117.09 259.00,132.84 259.00,137.00
             259.00,137.00 255.00,137.00 255.00,137.00
             255.00,137.00 255.00,106.00 255.00,106.00
             255.00,106.00 259.00,106.00 259.00,106.00 Z
           M 19.85,119.60
           C 24.99,123.43 25.35,139.01 11.00,136.85
             0.14,135.22 2.15,117.42 4.85,113.02
             8.72,106.73 13.54,107.00 20.00,107.00
             20.00,107.00 20.00,111.00 20.00,111.00
             13.06,111.09 10.39,112.02 8.00,119.00
             11.64,117.97 16.57,117.14 19.85,119.60 Z
           M 30.15,124.40
           C 25.01,120.57 24.65,104.99 39.00,107.15
             49.86,108.78 47.85,126.58 45.15,130.98
             41.28,137.27 36.46,137.00 30.00,137.00
             30.00,137.00 30.00,133.00 30.00,133.00
             36.94,132.91 39.61,131.98 42.00,125.00
             38.36,126.03 33.43,126.86 30.15,124.40 Z
           M 54.99,108.74
           C 57.43,105.72 66.89,106.64 69.26,109.43
             70.39,110.75 70.72,112.33 70.89,114.00
             71.79,123.05 64.54,129.05 58.00,134.00
             58.00,134.00 72.00,134.00 72.00,134.00
             72.00,134.00 72.00,137.00 72.00,137.00
             72.00,137.00 53.00,137.00 53.00,137.00
             53.83,126.70 62.27,125.85 65.13,118.00
             66.90,113.14 63.64,110.71 59.00,111.62
             59.00,111.62 54.00,113.00 54.00,113.00
             54.11,111.57 54.02,109.94 54.99,108.74 Z
           M 97.00,107.00
           C 97.00,107.00 97.00,110.00 97.00,110.00
             97.00,110.00 84.00,110.00 84.00,110.00
             84.00,110.00 84.00,118.21 84.00,118.21
             86.07,118.00 90.09,117.89 91.96,118.21
             98.09,120.21 98.59,130.55 94.57,134.57
             91.96,137.18 82.55,138.42 79.99,135.26
             79.02,134.06 79.11,132.43 79.00,131.00
             81.18,131.57 84.86,132.93 86.98,132.58
             91.50,131.85 93.20,126.59 89.69,123.60
             87.34,121.60 82.94,122.00 80.00,122.00
             80.00,122.00 80.00,107.00 80.00,107.00
             80.00,107.00 97.00,107.00 97.00,107.00 Z
           M 102.93,123.00
           C 104.26,119.93 112.14,110.54 115.04,109.02
             116.79,108.11 118.13,108.15 120.00,108.00
             120.00,108.00 120.00,126.00 120.00,126.00
             120.00,126.00 124.00,126.00 124.00,126.00
             124.00,126.00 124.00,129.00 124.00,129.00
             124.00,129.00 120.00,129.00 120.00,129.00
             120.00,129.00 120.00,137.00 120.00,137.00
             120.00,137.00 116.00,137.00 116.00,137.00
             116.00,137.00 116.00,129.00 116.00,129.00
             116.00,129.00 102.00,129.00 102.00,129.00
             102.08,126.76 102.01,125.14 102.93,123.00 Z
           M 150.00,108.00
           C 150.00,108.00 156.00,122.00 156.00,122.00
             161.52,112.03 159.83,108.32 169.00,108.00
             169.00,108.00 169.00,137.00 169.00,137.00
             169.00,137.00 165.00,137.00 165.00,137.00
             165.00,137.00 164.00,115.00 164.00,115.00
             163.17,117.91 159.21,129.52 155.17,128.27
             152.82,127.54 148.46,117.56 147.00,115.00
             147.00,115.00 147.00,137.00 147.00,137.00
             147.00,137.00 143.00,137.00 143.00,137.00
             143.00,137.00 143.00,108.00 143.00,108.00
             143.00,108.00 150.00,108.00 150.00,108.00 Z
           M 38.86,121.67
           C 43.27,120.58 43.72,110.34 35.14,111.62
             29.22,115.69 32.83,123.16 38.86,121.67 Z
           M 106.00,126.00
           C 106.00,126.00 116.00,126.00 116.00,126.00
             116.00,126.00 116.00,114.00 116.00,114.00
             116.00,114.00 106.00,126.00 106.00,126.00 Z
           M 190.85,115.02
           C 195.58,117.82 194.00,131.81 194.00,137.00
             194.00,137.00 189.00,135.00 189.00,135.00
             185.99,136.95 181.49,137.95 178.15,135.98
             173.92,133.48 174.18,126.65 178.15,123.85
             181.11,121.77 185.53,122.01 189.00,122.00
             185.89,116.49 182.43,118.28 177.00,119.00
             177.00,119.00 177.00,114.00 177.00,114.00
             180.24,114.00 188.31,113.52 190.85,115.02 Z
           M 215.00,132.12
           C 216.56,132.51 223.43,133.13 221.09,129.50
             219.91,127.68 206.70,126.02 212.02,117.23
             214.04,113.89 223.44,112.39 225.98,115.60
             226.96,116.83 226.88,118.53 227.00,120.00
             227.00,120.00 216.00,118.00 216.00,118.00
             218.82,126.49 228.97,121.30 227.84,130.99
             226.86,139.31 213.76,137.45 211.99,135.26
             211.02,134.06 211.11,132.43 211.00,131.00
             211.00,131.00 215.00,132.12 215.00,132.12 Z
           M 249.01,135.19
           C 246.69,138.12 238.02,137.22 235.39,135.19
             232.12,132.49 231.82,127.87 232.04,124.00
             232.77,111.24 247.04,113.31 249.01,115.74
             249.98,116.94 249.89,118.57 250.00,120.00
             247.35,119.31 243.76,117.81 241.11,118.78
             236.10,120.62 235.74,129.23 240.23,131.81
             243.18,133.51 246.97,131.79 250.00,131.00
             249.89,132.43 249.98,134.06 249.01,135.19 Z
           M 14.86,132.38
           C 19.23,130.67 19.76,120.68 10.31,122.60
             5.49,126.66 9.32,134.55 14.86,132.38 Z
           M 185.02,126.11
           C 174.92,128.14 184.44,137.16 188.98,130.57
             189.93,129.19 189.87,127.58 190.00,126.11
             190.00,126.11 185.02,126.11 185.02,126.11 Z
           M 121.00,202.00
           C 121.00,202.00 121.00,233.00 121.00,233.00
             121.00,233.00 117.00,233.00 117.00,233.00
             117.00,233.00 117.00,202.00 117.00,202.00
             117.00,202.00 121.00,202.00 121.00,202.00 Z
           M 198.00,221.00
           C 197.91,216.17 197.43,217.23 196.79,213.66
             196.28,210.78 198.59,204.53 201.15,203.02
             203.34,201.73 207.46,202.00 210.00,202.00
             210.00,202.00 210.00,206.00 210.00,206.00
             205.13,206.40 204.48,206.76 202.00,211.00
             202.00,211.00 209.00,211.00 209.00,211.00
             209.00,211.00 209.00,214.00 209.00,214.00
             209.00,214.00 202.00,214.00 202.00,214.00
             202.00,214.00 202.00,233.00 202.00,233.00
             202.00,233.00 198.00,233.00 198.00,233.00
             198.00,233.00 198.00,221.00 198.00,221.00 Z
           M 280.00,202.00
           C 280.00,202.00 280.00,212.00 280.00,212.00
             281.85,211.14 282.91,210.54 285.00,210.23
             292.73,209.08 293.96,213.65 294.00,220.00
             294.00,220.00 294.00,233.00 294.00,233.00
             294.00,233.00 290.00,233.00 290.00,233.00
             290.00,229.02 290.89,215.95 285.86,214.82
             278.14,213.09 280.00,228.84 280.00,233.00
             280.00,233.00 276.00,233.00 276.00,233.00
             276.00,233.00 276.00,202.00 276.00,202.00
             276.00,202.00 280.00,202.00 280.00,202.00 Z
           M 305.00,202.00
           C 305.00,202.00 305.00,212.00 305.00,212.00
             307.82,210.51 309.68,209.69 313.00,210.15
             322.63,211.49 320.91,226.80 317.35,230.57
             314.13,233.98 305.69,232.81 301.00,233.00
             301.00,233.00 301.00,202.00 301.00,202.00
             301.00,202.00 305.00,202.00 305.00,202.00 Z
           M 486.00,202.00
           C 486.00,202.00 486.00,233.00 486.00,233.00
             486.00,233.00 481.00,231.00 481.00,231.00
             466.70,241.53 461.04,212.96 474.02,210.28
             476.84,209.69 479.31,210.24 482.00,211.00
             482.00,211.00 482.00,202.00 482.00,202.00
             482.00,202.00 486.00,202.00 486.00,202.00 Z
           M 238.39,231.81
           C 232.20,224.85 233.29,206.47 247.00,203.39
             257.86,200.95 267.66,206.17 267.98,218.00
             268.08,221.45 268.43,227.69 264.72,229.40
             262.07,230.63 247.60,230.29 245.43,228.40
             241.32,224.83 242.26,214.65 247.06,212.02
             249.66,210.60 255.87,211.00 259.00,211.00
             259.00,211.00 259.00,228.00 259.00,228.00
             269.80,224.41 262.49,205.27 250.00,207.23
             240.47,208.71 235.78,220.19 241.65,227.90
             245.66,233.15 252.87,233.87 259.00,234.00
             259.00,234.00 259.00,237.00 259.00,237.00
             251.48,237.00 243.97,238.08 238.39,231.81 Z
           M 23.00,204.00
           C 23.00,204.00 23.00,207.00 23.00,207.00
             23.00,207.00 8.00,207.00 8.00,207.00
             8.00,207.00 8.00,215.00 8.00,215.00
             8.00,215.00 23.00,215.00 23.00,215.00
             23.00,215.00 23.00,218.00 23.00,218.00
             23.00,218.00 8.00,218.00 8.00,218.00
             8.00,218.00 8.00,230.00 8.00,230.00
             8.00,230.00 23.00,230.00 23.00,230.00
             23.00,230.00 23.00,233.00 23.00,233.00
             23.00,233.00 4.00,233.00 4.00,233.00
             4.00,233.00 4.00,204.00 4.00,204.00
             4.00,204.00 23.00,204.00 23.00,204.00 Z
           M 54.00,204.00
           C 54.00,204.00 60.00,218.00 60.00,218.00
             65.52,208.03 63.83,204.32 73.00,204.00
             73.00,204.00 73.00,233.00 73.00,233.00
             73.00,233.00 69.00,233.00 69.00,233.00
             69.00,233.00 68.00,211.00 68.00,211.00
             67.17,213.91 63.21,225.52 59.17,224.27
             56.82,223.54 52.46,213.56 51.00,211.00
             51.00,211.00 51.00,233.00 51.00,233.00
             51.00,233.00 47.00,233.00 47.00,233.00
             47.00,233.00 47.00,204.00 47.00,204.00
             47.00,204.00 54.00,204.00 54.00,204.00 Z
           M 109.00,204.00
           C 109.00,204.00 109.00,208.00 109.00,208.00
             109.00,208.00 105.00,208.00 105.00,208.00
             105.00,208.00 105.00,204.00 105.00,204.00
             105.00,204.00 109.00,204.00 109.00,204.00 Z
           M 165.00,204.00
           C 165.00,204.00 165.00,208.00 165.00,208.00
             165.00,208.00 161.00,208.00 161.00,208.00
             161.00,208.00 161.00,204.00 161.00,204.00
             161.00,204.00 165.00,204.00 165.00,204.00 Z
           M 94.85,211.02
           C 99.58,213.82 98.00,227.81 98.00,233.00
             98.00,233.00 93.00,231.00 93.00,231.00
             89.99,232.95 85.49,233.95 82.15,231.98
             77.92,229.48 78.18,222.65 82.15,219.85
             85.11,217.77 89.53,218.01 93.00,218.00
             89.89,212.49 86.43,214.28 81.00,215.00
             81.00,215.00 81.00,210.00 81.00,210.00
             84.24,210.00 92.31,209.52 94.85,211.02 Z
           M 186.94,210.80
           C 193.05,213.03 191.00,227.41 191.00,233.00
             191.00,233.00 187.00,233.00 187.00,233.00
             187.00,229.02 187.89,215.95 182.86,214.82
             175.14,213.09 177.00,228.84 177.00,233.00
             177.00,233.00 173.00,233.00 173.00,233.00
             173.00,233.00 173.00,210.80 173.00,210.80
             177.30,211.17 184.00,209.43 186.94,210.80 Z
           M 227.35,212.57
           C 231.37,216.75 231.35,229.53 224.90,232.26
             223.48,232.86 221.53,232.97 220.00,232.97
             207.07,232.97 207.38,215.52 215.10,210.74
             219.08,209.73 224.22,209.32 227.35,212.57 Z
           M 328.00,228.12
           C 329.56,228.51 336.43,229.13 334.09,225.50
             332.91,223.68 319.70,222.02 325.02,213.23
             327.04,209.89 336.44,208.39 338.98,211.60
             339.96,212.83 339.88,214.53 340.00,216.00
             340.00,216.00 329.00,214.00 329.00,214.00
             331.82,222.49 341.97,217.30 340.84,226.99
             339.86,235.31 326.76,233.45 324.99,231.26
             324.02,230.06 324.11,228.43 324.00,227.00
             324.00,227.00 328.00,228.12 328.00,228.12 Z
           M 362.01,231.19
           C 359.69,234.12 351.02,233.22 348.39,231.19
             345.12,228.49 344.82,223.87 345.04,220.00
             345.77,207.24 360.04,209.31 362.01,211.74
             362.98,212.94 362.89,214.57 363.00,216.00
             359.97,215.21 356.18,213.49 353.23,215.19
             348.74,217.77 349.10,226.38 354.11,228.22
             356.76,229.19 360.35,227.69 363.00,227.00
             362.89,228.43 362.98,230.06 362.01,231.19 Z
           M 383.35,212.57
           C 387.37,216.75 387.35,229.53 380.90,232.26
             379.48,232.86 377.53,232.97 376.00,232.97
             363.07,232.97 363.38,215.52 371.10,210.74
             375.08,209.73 380.22,209.32 383.35,212.57 Z
           M 426.01,231.26
           C 423.66,234.16 413.90,233.20 411.11,231.26
             407.23,228.57 406.80,224.35 407.04,220.00
             407.43,213.21 411.29,209.96 418.00,210.03
             420.11,210.06 422.04,210.26 423.77,211.60
             427.15,214.20 426.96,218.19 427.00,222.00
             427.00,222.00 412.00,222.00 412.00,222.00
             414.73,231.18 419.91,228.84 427.00,227.00
             426.89,228.43 426.98,230.06 426.01,231.26 Z
           M 511.01,231.26
           C 508.66,234.16 498.90,233.20 496.11,231.26
             492.23,228.57 491.80,224.35 492.04,220.00
             492.43,213.21 496.29,209.96 503.00,210.03
             505.11,210.06 507.04,210.26 508.77,211.60
             512.15,214.20 511.96,218.19 512.00,222.00
             512.00,222.00 497.00,222.00 497.00,222.00
             499.73,231.18 504.91,228.84 512.00,227.00
             511.89,228.43 511.98,230.06 511.01,231.26 Z
           M 109.00,211.00
           C 109.00,211.00 109.00,233.00 109.00,233.00
             109.00,233.00 105.00,233.00 105.00,233.00
             105.00,233.00 105.00,211.00 105.00,211.00
             105.00,211.00 109.00,211.00 109.00,211.00 Z
           M 137.00,211.00
           C 137.00,211.00 137.00,217.00 137.00,217.00
             137.00,217.00 132.00,217.00 132.00,217.00
             132.00,217.00 132.00,211.00 132.00,211.00
             132.00,211.00 137.00,211.00 137.00,211.00 Z
           M 165.00,211.00
           C 165.00,211.00 165.00,233.00 165.00,233.00
             165.00,233.00 161.00,233.00 161.00,233.00
             161.00,233.00 161.00,211.00 161.00,211.00
             161.00,211.00 165.00,211.00 165.00,211.00 Z
           M 397.00,213.00
           C 397.00,213.00 405.00,211.00 405.00,211.00
             405.00,211.00 405.00,215.00 405.00,215.00
             393.59,217.72 396.00,223.28 396.00,233.00
             396.00,233.00 392.00,233.00 392.00,233.00
             392.00,233.00 392.00,211.00 392.00,211.00
             392.00,211.00 397.00,213.00 397.00,213.00 Z
           M 448.00,211.00
           C 447.39,218.58 441.08,223.90 437.00,230.00
             437.00,230.00 448.00,230.00 448.00,230.00
             448.00,230.00 448.00,233.00 448.00,233.00
             448.00,233.00 431.00,233.00 431.00,233.00
             431.62,225.01 437.66,220.48 442.00,214.00
             442.00,214.00 431.00,214.00 431.00,214.00
             431.00,214.00 431.00,211.00 431.00,211.00
             431.00,211.00 448.00,211.00 448.00,211.00 Z
           M 221.78,228.38
           C 225.62,226.83 228.17,213.14 218.14,214.62
             212.15,218.73 214.99,231.13 221.78,228.38 Z
           M 306.02,216.43
           C 304.91,218.04 302.68,230.62 310.90,228.67
             315.84,227.49 318.10,214.44 309.05,214.49
             307.65,215.09 307.05,214.94 306.02,216.43 Z
           M 377.78,228.38
           C 381.62,226.83 384.17,213.14 374.14,214.62
             368.15,218.73 370.99,231.13 377.78,228.38 Z
           M 412.00,219.00
           C 412.00,219.00 422.00,219.00 422.00,219.00
             420.37,211.89 414.02,212.67 412.00,219.00 Z
           M 478.86,228.24
           C 482.59,226.73 485.53,212.56 475.22,214.60
             469.44,218.78 471.47,231.23 478.86,228.24 Z
           M 497.00,219.00
           C 497.00,219.00 507.00,219.00 507.00,219.00
             505.37,211.89 499.02,212.67 497.00,219.00 Z
           M 251.06,215.16
           C 245.03,216.96 245.81,227.50 252.87,225.55
             254.47,225.11 255.23,224.35 255.90,222.77
             255.98,221.85 255.98,220.00 255.90,219.00
             255.90,219.00 255.90,215.16 255.90,215.16
             254.65,215.02 252.31,214.97 251.06,215.16 Z
           M 40.00,218.00
           C 40.00,218.00 40.00,221.00 40.00,221.00
             40.00,221.00 28.00,221.00 28.00,221.00
             28.00,221.00 28.00,218.00 28.00,218.00
             28.00,218.00 40.00,218.00 40.00,218.00 Z
           M 89.02,222.11
           C 78.92,224.14 88.44,233.16 92.98,226.57
             93.93,225.19 93.87,223.58 94.00,222.11
             94.00,222.11 89.02,222.11 89.02,222.11 Z
           M 137.00,227.00
           C 137.00,227.00 137.00,233.00 137.00,233.00
             137.00,233.00 132.00,233.00 132.00,233.00
             132.00,233.00 132.00,227.00 132.00,227.00
             132.00,227.00 137.00,227.00 137.00,227.00 Z
           M 460.00,227.00
           C 460.00,227.00 460.00,233.00 460.00,233.00
             460.00,233.00 455.00,233.00 455.00,233.00
             455.00,233.00 455.00,227.00 455.00,227.00
             455.00,227.00 460.00,227.00 460.00,227.00 Z" />
</svg>
